<svg width="410" height="134" viewBox="0 0 410 134" fill="none" xmlns="http://www.w3.org/2000/svg">
<path d="M30.56 49.748C25.256 49.748 20.7 48.728 16.892 46.688C13.084 44.648 10.16 41.7693 8.12 38.052C6.12533 34.3347 5.128 29.9827 5.128 24.996C5.128 20.0093 6.12533 15.68 8.12 12.008C10.16 8.29066 13.084 5.412 16.892 3.372C20.7 1.332 25.256 0.311999 30.56 0.311999C33.7333 0.311999 36.7933 0.810666 39.74 1.808C42.6867 2.76 45.0667 4.02933 46.88 5.616L43.14 15.476C41.1453 14.0253 39.1507 12.96 37.156 12.28C35.1613 11.5547 33.1213 11.192 31.036 11.192C26.82 11.192 23.6467 12.3933 21.516 14.796C19.3853 17.1533 18.32 20.5533 18.32 24.996C18.32 29.484 19.3853 32.9293 21.516 35.332C23.6467 37.6893 26.82 38.868 31.036 38.868C33.1213 38.868 35.1613 38.528 37.156 37.848C39.1507 37.1227 41.1453 36.0347 43.14 34.584L46.88 44.444C45.0667 46.0307 42.6867 47.3227 39.74 48.32C36.7933 49.272 33.7333 49.748 30.56 49.748ZM52.2196 49V1.06H64.3236V19.692C66.7263 16.428 70.2169 14.796 74.7956 14.796C78.7849 14.796 81.7316 15.9747 83.6356 18.332C85.5849 20.6893 86.5596 24.316 86.5596 29.212V49H74.4556V29.688C74.4556 27.648 74.0929 26.1973 73.3676 25.336C72.6876 24.4747 71.6676 24.044 70.3076 24.044C68.4943 24.044 67.0436 24.6333 65.9556 25.812C64.8676 26.9453 64.3236 28.4867 64.3236 30.436V49H52.2196ZM110.39 49.748C106.673 49.748 103.431 49.0453 100.666 47.64C97.9005 46.2347 95.7472 44.2173 94.2059 41.588C92.6645 38.9587 91.8939 35.8533 91.8939 32.272C91.8939 28.6453 92.6645 25.54 94.2059 22.956C95.7472 20.3267 97.9005 18.3093 100.666 16.904C103.431 15.4987 106.673 14.796 110.39 14.796C114.107 14.796 117.349 15.4987 120.114 16.904C122.879 18.3093 125.01 20.3267 126.506 22.956C128.047 25.54 128.818 28.6453 128.818 32.272C128.818 35.8533 128.047 38.9587 126.506 41.588C125.01 44.2173 122.879 46.2347 120.114 47.64C117.349 49.0453 114.107 49.748 110.39 49.748ZM110.39 40.84C112.203 40.84 113.699 40.16 114.878 38.8C116.057 37.44 116.646 35.264 116.646 32.272C116.646 29.2347 116.057 27.0587 114.878 25.744C113.699 24.384 112.203 23.704 110.39 23.704C108.531 23.704 107.013 24.384 105.834 25.744C104.655 27.0587 104.066 29.2347 104.066 32.272C104.066 35.264 104.655 37.44 105.834 38.8C107.013 40.16 108.531 40.84 110.39 40.84ZM151.296 49.748C147.579 49.748 144.337 49.0453 141.572 47.64C138.807 46.2347 136.653 44.2173 135.112 41.588C133.571 38.9587 132.8 35.8533 132.8 32.272C132.8 28.6453 133.571 25.54 135.112 22.956C136.653 20.3267 138.807 18.3093 141.572 16.904C144.337 15.4987 147.579 14.796 151.296 14.796C155.013 14.796 158.255 15.4987 161.02 16.904C163.785 18.3093 165.916 20.3267 167.412 22.956C168.953 25.54 169.724 28.6453 169.724 32.272C169.724 35.8533 168.953 38.9587 167.412 41.588C165.916 44.2173 163.785 46.2347 161.02 47.64C158.255 49.0453 155.013 49.748 151.296 49.748ZM151.296 40.84C153.109 40.84 154.605 40.16 155.784 38.8C156.963 37.44 157.552 35.264 157.552 32.272C157.552 29.2347 156.963 27.0587 155.784 25.744C154.605 24.384 153.109 23.704 151.296 23.704C149.437 23.704 147.919 24.384 146.74 25.744C145.561 27.0587 144.972 29.2347 144.972 32.272C144.972 35.264 145.561 37.44 146.74 38.8C147.919 40.16 149.437 40.84 151.296 40.84ZM188.598 49.748C185.516 49.748 182.66 49.4307 180.03 48.796C177.446 48.1613 175.248 47.2773 173.434 46.144L176.222 38.324C177.9 39.276 179.849 40.0693 182.07 40.704C184.292 41.2933 186.49 41.588 188.666 41.588C190.344 41.588 191.545 41.3613 192.27 40.908C192.996 40.4093 193.358 39.7747 193.358 39.004C193.358 38.324 193.109 37.8253 192.61 37.508C192.157 37.1453 191.5 36.8733 190.638 36.692L183.09 35.468C180.28 35.0147 178.104 33.9947 176.562 32.408C175.021 30.8213 174.25 28.7587 174.25 26.22C174.25 23.8627 174.908 21.8453 176.222 20.168C177.537 18.4453 179.373 17.1307 181.73 16.224C184.088 15.272 186.785 14.796 189.822 14.796C192.225 14.796 194.605 15.0907 196.962 15.68C199.32 16.224 201.382 17.1307 203.15 18.4L200.158 26.084C198.844 25.1773 197.212 24.4293 195.262 23.84C193.313 23.2053 191.568 22.888 190.026 22.888C188.168 22.888 186.853 23.16 186.082 23.704C185.312 24.2027 184.926 24.8147 184.926 25.54C184.926 26.764 185.765 27.512 187.442 27.784L194.99 29.076C197.892 29.5293 200.113 30.5267 201.654 32.068C203.241 33.564 204.034 35.604 204.034 38.188C204.034 41.86 202.629 44.716 199.818 46.756C197.008 48.7507 193.268 49.748 188.598 49.748ZM227.229 49.748C223.149 49.748 219.613 49.0453 216.621 47.64C213.674 46.1893 211.407 44.1493 209.821 41.52C208.234 38.8907 207.441 35.7853 207.441 32.204C207.441 28.804 208.189 25.7893 209.685 23.16C211.226 20.5307 213.311 18.4907 215.941 17.04C218.615 15.544 221.653 14.796 225.053 14.796C228.407 14.796 231.309 15.4987 233.757 16.904C236.25 18.3093 238.154 20.3267 239.469 22.956C240.829 25.54 241.509 28.5773 241.509 32.068V34.72H219.001C219.409 36.896 220.315 38.46 221.721 39.412C223.126 40.364 225.075 40.84 227.569 40.84C229.291 40.84 231.082 40.5907 232.941 40.092C234.845 39.548 236.522 38.7773 237.973 37.78L240.965 45.736C239.242 46.96 237.134 47.9347 234.641 48.66C232.147 49.3853 229.677 49.748 227.229 49.748ZM225.597 22.616C223.783 22.616 222.287 23.16 221.109 24.248C219.975 25.336 219.25 26.9227 218.933 29.008H231.581C231.445 26.8773 230.855 25.2907 229.813 24.248C228.815 23.16 227.41 22.616 225.597 22.616ZM7.576 133.24L14.308 118.688L0.64 87.544H13.356L20.7 106.516L28.316 87.544H40.284L19.816 133.24H7.576ZM58.3938 121.748C54.6764 121.748 51.4351 121.045 48.6698 119.64C45.9044 118.235 43.7511 116.217 42.2098 113.588C40.6684 110.959 39.8978 107.853 39.8978 104.272C39.8978 100.645 40.6684 97.54 42.2098 94.956C43.7511 92.3267 45.9044 90.3093 48.6698 88.904C51.4351 87.4987 54.6764 86.796 58.3938 86.796C62.1111 86.796 65.3524 87.4987 68.1178 88.904C70.8831 90.3093 73.0138 92.3267 74.5098 94.956C76.0511 97.54 76.8218 100.645 76.8218 104.272C76.8218 107.853 76.0511 110.959 74.5098 113.588C73.0138 116.217 70.8831 118.235 68.1178 119.64C65.3524 121.045 62.1111 121.748 58.3938 121.748ZM58.3938 112.84C60.2071 112.84 61.7031 112.16 62.8818 110.8C64.0604 109.44 64.6498 107.264 64.6498 104.272C64.6498 101.235 64.0604 99.0587 62.8818 97.744C61.7031 96.384 60.2071 95.704 58.3938 95.704C56.5351 95.704 55.0164 96.384 53.8378 97.744C52.6591 99.0587 52.0698 101.235 52.0698 104.272C52.0698 107.264 52.6591 109.44 53.8378 110.8C55.0164 112.16 56.5351 112.84 58.3938 112.84ZM94.88 121.748C90.528 121.748 87.3094 120.569 85.224 118.212C83.184 115.809 82.164 112.16 82.164 107.264V87.544H94.268V107.604C94.268 110.868 95.6734 112.5 98.484 112.5C100.116 112.5 101.453 111.911 102.496 110.732C103.539 109.553 104.06 107.989 104.06 106.04V87.544H116.164V121H104.332V116.852C102.156 120.116 99.0054 121.748 94.88 121.748ZM123.208 121V87.544H134.972V93.188C136.513 89.3347 139.845 87.2267 144.968 86.864L148.3 86.592L148.98 96.792L142.384 97.404C139.981 97.6307 138.236 98.3107 137.148 99.444C136.06 100.532 135.516 102.164 135.516 104.34V121H123.208ZM185.205 121.748C182.349 121.748 179.811 121.045 177.589 119.64C175.413 118.235 173.691 116.217 172.421 113.588C171.197 110.959 170.585 107.853 170.585 104.272C170.585 100.645 171.197 97.54 172.421 94.956C173.691 92.3267 175.413 90.3093 177.589 88.904C179.811 87.4987 182.349 86.796 185.205 86.796C187.336 86.796 189.285 87.2493 191.053 88.156C192.867 89.0173 194.249 90.1507 195.201 91.556V73.06H207.305V121H195.473V116.376C194.612 118.008 193.252 119.323 191.393 120.32C189.535 121.272 187.472 121.748 185.205 121.748ZM189.081 112.84C190.895 112.84 192.391 112.16 193.569 110.8C194.748 109.44 195.337 107.264 195.337 104.272C195.337 101.235 194.748 99.0587 193.569 97.744C192.391 96.384 190.895 95.704 189.081 95.704C187.223 95.704 185.704 96.384 184.525 97.744C183.347 99.0587 182.757 101.235 182.757 104.272C182.757 107.264 183.347 109.44 184.525 110.8C185.704 112.16 187.223 112.84 189.081 112.84ZM232.541 121.748C228.461 121.748 224.925 121.045 221.933 119.64C218.987 118.189 216.72 116.149 215.133 113.52C213.547 110.891 212.753 107.785 212.753 104.204C212.753 100.804 213.501 97.7893 214.997 95.16C216.539 92.5307 218.624 90.4907 221.253 89.04C223.928 87.544 226.965 86.796 230.365 86.796C233.72 86.796 236.621 87.4987 239.069 88.904C241.563 90.3093 243.467 92.3267 244.781 94.956C246.141 97.54 246.821 100.577 246.821 104.068V106.72H224.313C224.721 108.896 225.628 110.46 227.033 111.412C228.439 112.364 230.388 112.84 232.881 112.84C234.604 112.84 236.395 112.591 238.253 112.092C240.157 111.548 241.835 110.777 243.285 109.78L246.277 117.736C244.555 118.96 242.447 119.935 239.953 120.66C237.46 121.385 234.989 121.748 232.541 121.748ZM230.909 94.616C229.096 94.616 227.6 95.16 226.421 96.248C225.288 97.336 224.563 98.9227 224.245 101.008H236.893C236.757 98.8773 236.168 97.2907 235.125 96.248C234.128 95.16 232.723 94.616 230.909 94.616ZM265.364 121.748C262.281 121.748 259.425 121.431 256.796 120.796C254.212 120.161 252.013 119.277 250.2 118.144L252.988 110.324C254.665 111.276 256.615 112.069 258.836 112.704C261.057 113.293 263.256 113.588 265.432 113.588C267.109 113.588 268.311 113.361 269.036 112.908C269.761 112.409 270.124 111.775 270.124 111.004C270.124 110.324 269.875 109.825 269.376 109.508C268.923 109.145 268.265 108.873 267.404 108.692L259.856 107.468C257.045 107.015 254.869 105.995 253.328 104.408C251.787 102.821 251.016 100.759 251.016 98.22C251.016 95.8627 251.673 93.8453 252.988 92.168C254.303 90.4453 256.139 89.1307 258.496 88.224C260.853 87.272 263.551 86.796 266.588 86.796C268.991 86.796 271.371 87.0907 273.728 87.68C276.085 88.224 278.148 89.1307 279.916 90.4L276.924 98.084C275.609 97.1773 273.977 96.4293 272.028 95.84C270.079 95.2053 268.333 94.888 266.792 94.888C264.933 94.888 263.619 95.16 262.848 95.704C262.077 96.2027 261.692 96.8147 261.692 97.54C261.692 98.764 262.531 99.512 264.208 99.784L271.756 101.076C274.657 101.529 276.879 102.527 278.42 104.068C280.007 105.564 280.8 107.604 280.8 110.188C280.8 113.86 279.395 116.716 276.584 118.756C273.773 120.751 270.033 121.748 265.364 121.748ZM302.982 121.748C297.905 121.748 294.142 120.569 291.694 118.212C289.246 115.855 288.022 112.296 288.022 107.536V96.452H281.766V87.544H288.022V77.82H300.126V87.544H309.646V96.452H300.126V107.128C300.126 110.392 301.781 112.024 305.09 112.024C305.634 112.024 306.224 111.979 306.858 111.888C307.538 111.752 308.286 111.571 309.102 111.344L310.734 120.048C309.692 120.592 308.468 121 307.062 121.272C305.657 121.589 304.297 121.748 302.982 121.748ZM314.051 81.764V70.816H326.767V81.764H314.051ZM314.391 121V87.544H326.495V121H314.391ZM333.516 121V87.544H345.28V92.1C346.459 90.3773 347.978 89.0627 349.836 88.156C351.695 87.2493 353.78 86.796 356.092 86.796C360.082 86.796 363.028 87.9747 364.932 90.332C366.882 92.6893 367.856 96.316 367.856 101.212V121H355.752V101.688C355.752 99.648 355.39 98.1973 354.664 97.336C353.984 96.4747 352.964 96.044 351.604 96.044C349.791 96.044 348.34 96.6333 347.252 97.812C346.164 98.9453 345.62 100.487 345.62 102.436V121H333.516ZM376.463 133.24L383.195 118.688L369.527 87.544H382.243L389.587 106.516L397.203 87.544H409.171L388.703 133.24H376.463Z" fill="#FFCCBC"/>
</svg>
